<mxfile host="app.diagrams.net" modified="2024-03-28T17:33:54.595Z" agent="Mozilla/5.0 (X11; Linux x86_64; rv:124.0) Gecko/20100101 Firefox/124.0" etag="yCeXDPNy37pj_wzAfOyj" version="24.2.1" type="device">
  <diagram name="Page-1" id="OqpxsHZoaa25dW6-v9II">
    <mxGraphModel dx="806" dy="401" grid="1" gridSize="10" guides="1" tooltips="1" connect="1" arrows="1" fold="1" page="1" pageScale="1" pageWidth="1169" pageHeight="827" math="0" shadow="0">
      <root>
        <mxCell id="0" />
        <object label="names" id="ziAvvamodwvuvdEPDoWD-52">
          <mxCell parent="0" />
        </object>
        <mxCell id="ziAvvamodwvuvdEPDoWD-53" value="" style="group" parent="ziAvvamodwvuvdEPDoWD-52" vertex="1" connectable="0">
          <mxGeometry x="320" y="470" width="50" height="108" as="geometry" />
        </mxCell>
        <mxCell id="ziAvvamodwvuvdEPDoWD-54" value="" style="aspect=fixed;sketch=0;html=1;dashed=0;whitespace=wrap;fillColor=#2875E2;strokeColor=#ffffff;points=[[0.005,0.63,0],[0.1,0.2,0],[0.9,0.2,0],[0.5,0,0],[0.995,0.63,0],[0.72,0.99,0],[0.5,1,0],[0.28,0.99,0]];shape=mxgraph.kubernetes.icon2;kubernetesLabel=1;prIcon=pod" parent="ziAvvamodwvuvdEPDoWD-53" vertex="1">
          <mxGeometry y="60" width="50" height="48" as="geometry" />
        </mxCell>
        <mxCell id="ziAvvamodwvuvdEPDoWD-55" value="" style="aspect=fixed;sketch=0;html=1;dashed=0;whitespace=wrap;fillColor=#2875E2;strokeColor=#ffffff;points=[[0.005,0.63,0],[0.1,0.2,0],[0.9,0.2,0],[0.5,0,0],[0.995,0.63,0],[0.72,0.99,0],[0.5,1,0],[0.28,0.99,0]];shape=mxgraph.kubernetes.icon2;kubernetesLabel=1;prIcon=svc" parent="ziAvvamodwvuvdEPDoWD-53" vertex="1">
          <mxGeometry width="50" height="48" as="geometry" />
        </mxCell>
        <mxCell id="ziAvvamodwvuvdEPDoWD-56" value="" style="group" parent="ziAvvamodwvuvdEPDoWD-52" vertex="1" connectable="0">
          <mxGeometry x="420" y="470" width="50" height="108" as="geometry" />
        </mxCell>
        <mxCell id="ziAvvamodwvuvdEPDoWD-57" value="" style="aspect=fixed;sketch=0;html=1;dashed=0;whitespace=wrap;fillColor=#2875E2;strokeColor=#ffffff;points=[[0.005,0.63,0],[0.1,0.2,0],[0.9,0.2,0],[0.5,0,0],[0.995,0.63,0],[0.72,0.99,0],[0.5,1,0],[0.28,0.99,0]];shape=mxgraph.kubernetes.icon2;kubernetesLabel=1;prIcon=pod" parent="ziAvvamodwvuvdEPDoWD-56" vertex="1">
          <mxGeometry y="60" width="50" height="48" as="geometry" />
        </mxCell>
        <mxCell id="ziAvvamodwvuvdEPDoWD-58" value="" style="aspect=fixed;sketch=0;html=1;dashed=0;whitespace=wrap;fillColor=#2875E2;strokeColor=#ffffff;points=[[0.005,0.63,0],[0.1,0.2,0],[0.9,0.2,0],[0.5,0,0],[0.995,0.63,0],[0.72,0.99,0],[0.5,1,0],[0.28,0.99,0]];shape=mxgraph.kubernetes.icon2;kubernetesLabel=1;prIcon=svc" parent="ziAvvamodwvuvdEPDoWD-56" vertex="1">
          <mxGeometry width="50" height="48" as="geometry" />
        </mxCell>
        <mxCell id="ziAvvamodwvuvdEPDoWD-59" value="" style="group" parent="ziAvvamodwvuvdEPDoWD-52" vertex="1" connectable="0">
          <mxGeometry x="520" y="470" width="78" height="108" as="geometry" />
        </mxCell>
        <mxCell id="ziAvvamodwvuvdEPDoWD-60" value="" style="aspect=fixed;sketch=0;html=1;dashed=0;whitespace=wrap;fillColor=#2875E2;strokeColor=#ffffff;points=[[0.005,0.63,0],[0.1,0.2,0],[0.9,0.2,0],[0.5,0,0],[0.995,0.63,0],[0.72,0.99,0],[0.5,1,0],[0.28,0.99,0]];shape=mxgraph.kubernetes.icon2;kubernetesLabel=1;prIcon=pod" parent="ziAvvamodwvuvdEPDoWD-59" vertex="1">
          <mxGeometry y="60" width="50" height="48" as="geometry" />
        </mxCell>
        <mxCell id="ziAvvamodwvuvdEPDoWD-61" value="" style="aspect=fixed;sketch=0;html=1;dashed=0;whitespace=wrap;fillColor=#2875E2;strokeColor=#ffffff;points=[[0.005,0.63,0],[0.1,0.2,0],[0.9,0.2,0],[0.5,0,0],[0.995,0.63,0],[0.72,0.99,0],[0.5,1,0],[0.28,0.99,0]];shape=mxgraph.kubernetes.icon2;kubernetesLabel=1;prIcon=svc" parent="ziAvvamodwvuvdEPDoWD-59" vertex="1">
          <mxGeometry width="50" height="48" as="geometry" />
        </mxCell>
        <mxCell id="ziAvvamodwvuvdEPDoWD-74" value="&lt;font face=&quot;Tahoma&quot;&gt;Back-end&lt;/font&gt;" style="rounded=0;whiteSpace=wrap;html=1;dashed=1;verticalAlign=bottom;align=right;" parent="ziAvvamodwvuvdEPDoWD-52" vertex="1">
          <mxGeometry x="285" y="420" width="320" height="260" as="geometry" />
        </mxCell>
        <mxCell id="jQ1B_9RGvY_NhjF2A59Y-3" style="edgeStyle=orthogonalEdgeStyle;rounded=0;orthogonalLoop=1;jettySize=auto;html=1;entryX=0.5;entryY=0;entryDx=0;entryDy=0;" edge="1" parent="ziAvvamodwvuvdEPDoWD-52" source="ziAvvamodwvuvdEPDoWD-75" target="ziAvvamodwvuvdEPDoWD-19">
          <mxGeometry relative="1" as="geometry" />
        </mxCell>
        <mxCell id="jQ1B_9RGvY_NhjF2A59Y-4" style="edgeStyle=orthogonalEdgeStyle;rounded=0;orthogonalLoop=1;jettySize=auto;html=1;entryX=0.5;entryY=0;entryDx=0;entryDy=0;" edge="1" parent="ziAvvamodwvuvdEPDoWD-52" source="ziAvvamodwvuvdEPDoWD-75" target="ziAvvamodwvuvdEPDoWD-8">
          <mxGeometry relative="1" as="geometry" />
        </mxCell>
        <mxCell id="jQ1B_9RGvY_NhjF2A59Y-5" style="edgeStyle=orthogonalEdgeStyle;rounded=0;orthogonalLoop=1;jettySize=auto;html=1;entryX=0.5;entryY=0;entryDx=0;entryDy=0;" edge="1" parent="ziAvvamodwvuvdEPDoWD-52" source="ziAvvamodwvuvdEPDoWD-75" target="ziAvvamodwvuvdEPDoWD-28">
          <mxGeometry relative="1" as="geometry" />
        </mxCell>
        <mxCell id="ziAvvamodwvuvdEPDoWD-75" value="&lt;div&gt;&lt;font face=&quot;Tahoma&quot;&gt;Front-end&lt;/font&gt;&lt;/div&gt;" style="rounded=0;whiteSpace=wrap;html=1;dashed=1;verticalAlign=bottom;align=right;" parent="ziAvvamodwvuvdEPDoWD-52" vertex="1">
          <mxGeometry x="385" y="310" width="120" height="90" as="geometry" />
        </mxCell>
        <mxCell id="jQ1B_9RGvY_NhjF2A59Y-1" style="edgeStyle=orthogonalEdgeStyle;rounded=0;orthogonalLoop=1;jettySize=auto;html=1;entryX=0.5;entryY=1;entryDx=0;entryDy=0;" edge="1" parent="ziAvvamodwvuvdEPDoWD-52" source="ziAvvamodwvuvdEPDoWD-8" target="ziAvvamodwvuvdEPDoWD-75">
          <mxGeometry relative="1" as="geometry">
            <Array as="points">
              <mxPoint x="345" y="430" />
              <mxPoint x="445" y="430" />
            </Array>
          </mxGeometry>
        </mxCell>
        <mxCell id="jQ1B_9RGvY_NhjF2A59Y-2" style="edgeStyle=orthogonalEdgeStyle;rounded=0;orthogonalLoop=1;jettySize=auto;html=1;entryX=0.5;entryY=1;entryDx=0;entryDy=0;" edge="1" parent="ziAvvamodwvuvdEPDoWD-52" source="ziAvvamodwvuvdEPDoWD-19" target="ziAvvamodwvuvdEPDoWD-75">
          <mxGeometry relative="1" as="geometry" />
        </mxCell>
        <object label="groups" id="ziAvvamodwvuvdEPDoWD-5">
          <mxCell parent="0" />
        </object>
        <mxCell id="ziAvvamodwvuvdEPDoWD-6" value="" style="aspect=fixed;sketch=0;html=1;dashed=0;whitespace=wrap;fillColor=#2875E2;strokeColor=#ffffff;points=[[0.005,0.63,0],[0.1,0.2,0],[0.9,0.2,0],[0.5,0,0],[0.995,0.63,0],[0.72,0.99,0],[0.5,1,0],[0.28,0.99,0]];shape=mxgraph.kubernetes.icon2;kubernetesLabel=1;prIcon=pod" parent="ziAvvamodwvuvdEPDoWD-5" vertex="1">
          <mxGeometry x="320" y="530" width="50" height="48" as="geometry" />
        </mxCell>
        <mxCell id="ziAvvamodwvuvdEPDoWD-7" value="" style="aspect=fixed;sketch=0;html=1;dashed=0;whitespace=wrap;fillColor=#2875E2;strokeColor=#ffffff;points=[[0.005,0.63,0],[0.1,0.2,0],[0.9,0.2,0],[0.5,0,0],[0.995,0.63,0],[0.72,0.99,0],[0.5,1,0],[0.28,0.99,0]];shape=mxgraph.kubernetes.icon2;kubernetesLabel=1;prIcon=svc" parent="ziAvvamodwvuvdEPDoWD-5" vertex="1">
          <mxGeometry x="320" y="470" width="50" height="48" as="geometry" />
        </mxCell>
        <mxCell id="ziAvvamodwvuvdEPDoWD-8" value="" style="rounded=0;whiteSpace=wrap;html=1;" parent="ziAvvamodwvuvdEPDoWD-5" vertex="1">
          <mxGeometry x="300" y="460" width="90" height="126" as="geometry" />
        </mxCell>
        <mxCell id="ziAvvamodwvuvdEPDoWD-17" value="" style="aspect=fixed;sketch=0;html=1;dashed=0;whitespace=wrap;fillColor=#2875E2;strokeColor=#ffffff;points=[[0.005,0.63,0],[0.1,0.2,0],[0.9,0.2,0],[0.5,0,0],[0.995,0.63,0],[0.72,0.99,0],[0.5,1,0],[0.28,0.99,0]];shape=mxgraph.kubernetes.icon2;kubernetesLabel=1;prIcon=pod" parent="ziAvvamodwvuvdEPDoWD-5" vertex="1">
          <mxGeometry x="420" y="530" width="50" height="48" as="geometry" />
        </mxCell>
        <mxCell id="ziAvvamodwvuvdEPDoWD-18" value="" style="aspect=fixed;sketch=0;html=1;dashed=0;whitespace=wrap;fillColor=#2875E2;strokeColor=#ffffff;points=[[0.005,0.63,0],[0.1,0.2,0],[0.9,0.2,0],[0.5,0,0],[0.995,0.63,0],[0.72,0.99,0],[0.5,1,0],[0.28,0.99,0]];shape=mxgraph.kubernetes.icon2;kubernetesLabel=1;prIcon=svc" parent="ziAvvamodwvuvdEPDoWD-5" vertex="1">
          <mxGeometry x="420" y="470" width="50" height="48" as="geometry" />
        </mxCell>
        <mxCell id="ziAvvamodwvuvdEPDoWD-19" value="" style="rounded=0;whiteSpace=wrap;html=1;" parent="ziAvvamodwvuvdEPDoWD-5" vertex="1">
          <mxGeometry x="400" y="460" width="90" height="126" as="geometry" />
        </mxCell>
        <mxCell id="ziAvvamodwvuvdEPDoWD-26" value="" style="aspect=fixed;sketch=0;html=1;dashed=0;whitespace=wrap;fillColor=#2875E2;strokeColor=#ffffff;points=[[0.005,0.63,0],[0.1,0.2,0],[0.9,0.2,0],[0.5,0,0],[0.995,0.63,0],[0.72,0.99,0],[0.5,1,0],[0.28,0.99,0]];shape=mxgraph.kubernetes.icon2;kubernetesLabel=1;prIcon=pod" parent="ziAvvamodwvuvdEPDoWD-5" vertex="1">
          <mxGeometry x="520" y="530" width="50" height="48" as="geometry" />
        </mxCell>
        <mxCell id="ziAvvamodwvuvdEPDoWD-27" value="" style="aspect=fixed;sketch=0;html=1;dashed=0;whitespace=wrap;fillColor=#2875E2;strokeColor=#ffffff;points=[[0.005,0.63,0],[0.1,0.2,0],[0.9,0.2,0],[0.5,0,0],[0.995,0.63,0],[0.72,0.99,0],[0.5,1,0],[0.28,0.99,0]];shape=mxgraph.kubernetes.icon2;kubernetesLabel=1;prIcon=svc" parent="ziAvvamodwvuvdEPDoWD-5" vertex="1">
          <mxGeometry x="520" y="470" width="50" height="48" as="geometry" />
        </mxCell>
        <mxCell id="ziAvvamodwvuvdEPDoWD-28" value="" style="rounded=0;whiteSpace=wrap;html=1;" parent="ziAvvamodwvuvdEPDoWD-5" vertex="1">
          <mxGeometry x="501" y="460" width="90" height="126" as="geometry" />
        </mxCell>
        <object label="components" id="1">
          <mxCell parent="0" />
        </object>
        <mxCell id="ziAvvamodwvuvdEPDoWD-10" value="" style="group" parent="1" vertex="1" connectable="0">
          <mxGeometry x="320" y="470" width="290" height="150" as="geometry" />
        </mxCell>
        <mxCell id="ziAvvamodwvuvdEPDoWD-1" value="" style="aspect=fixed;sketch=0;html=1;dashed=0;whitespace=wrap;fillColor=#2875E2;strokeColor=#ffffff;points=[[0.005,0.63,0],[0.1,0.2,0],[0.9,0.2,0],[0.5,0,0],[0.995,0.63,0],[0.72,0.99,0],[0.5,1,0],[0.28,0.99,0]];shape=mxgraph.kubernetes.icon2;kubernetesLabel=1;prIcon=pod" parent="ziAvvamodwvuvdEPDoWD-10" vertex="1">
          <mxGeometry y="60" width="50" height="48" as="geometry" />
        </mxCell>
        <mxCell id="ziAvvamodwvuvdEPDoWD-4" value="" style="aspect=fixed;sketch=0;html=1;dashed=0;whitespace=wrap;fillColor=#2875E2;strokeColor=#ffffff;points=[[0.005,0.63,0],[0.1,0.2,0],[0.9,0.2,0],[0.5,0,0],[0.995,0.63,0],[0.72,0.99,0],[0.5,1,0],[0.28,0.99,0]];shape=mxgraph.kubernetes.icon2;kubernetesLabel=1;prIcon=svc" parent="ziAvvamodwvuvdEPDoWD-10" vertex="1">
          <mxGeometry width="50" height="48" as="geometry" />
        </mxCell>
        <mxCell id="ziAvvamodwvuvdEPDoWD-23" value="" style="group" parent="1" vertex="1" connectable="0">
          <mxGeometry x="420" y="470" width="50" height="108" as="geometry" />
        </mxCell>
        <mxCell id="ziAvvamodwvuvdEPDoWD-24" value="" style="aspect=fixed;sketch=0;html=1;dashed=0;whitespace=wrap;fillColor=#2875E2;strokeColor=#ffffff;points=[[0.005,0.63,0],[0.1,0.2,0],[0.9,0.2,0],[0.5,0,0],[0.995,0.63,0],[0.72,0.99,0],[0.5,1,0],[0.28,0.99,0]];shape=mxgraph.kubernetes.icon2;kubernetesLabel=1;prIcon=pod" parent="ziAvvamodwvuvdEPDoWD-23" vertex="1">
          <mxGeometry y="60" width="50" height="48" as="geometry" />
        </mxCell>
        <mxCell id="ziAvvamodwvuvdEPDoWD-25" value="" style="aspect=fixed;sketch=0;html=1;dashed=0;whitespace=wrap;fillColor=#2875E2;strokeColor=#ffffff;points=[[0.005,0.63,0],[0.1,0.2,0],[0.9,0.2,0],[0.5,0,0],[0.995,0.63,0],[0.72,0.99,0],[0.5,1,0],[0.28,0.99,0]];shape=mxgraph.kubernetes.icon2;kubernetesLabel=1;prIcon=svc" parent="ziAvvamodwvuvdEPDoWD-23" vertex="1">
          <mxGeometry width="50" height="48" as="geometry" />
        </mxCell>
        <mxCell id="ziAvvamodwvuvdEPDoWD-32" value="" style="group" parent="1" vertex="1" connectable="0">
          <mxGeometry x="520" y="470" width="78" height="108" as="geometry" />
        </mxCell>
        <mxCell id="ziAvvamodwvuvdEPDoWD-33" value="" style="aspect=fixed;sketch=0;html=1;dashed=0;whitespace=wrap;fillColor=#2875E2;strokeColor=#ffffff;points=[[0.005,0.63,0],[0.1,0.2,0],[0.9,0.2,0],[0.5,0,0],[0.995,0.63,0],[0.72,0.99,0],[0.5,1,0],[0.28,0.99,0]];shape=mxgraph.kubernetes.icon2;kubernetesLabel=1;prIcon=pod" parent="ziAvvamodwvuvdEPDoWD-32" vertex="1">
          <mxGeometry y="60" width="50" height="48" as="geometry" />
        </mxCell>
        <mxCell id="ziAvvamodwvuvdEPDoWD-34" value="" style="aspect=fixed;sketch=0;html=1;dashed=0;whitespace=wrap;fillColor=#2875E2;strokeColor=#ffffff;points=[[0.005,0.63,0],[0.1,0.2,0],[0.9,0.2,0],[0.5,0,0],[0.995,0.63,0],[0.72,0.99,0],[0.5,1,0],[0.28,0.99,0]];shape=mxgraph.kubernetes.icon2;kubernetesLabel=1;prIcon=svc" parent="ziAvvamodwvuvdEPDoWD-32" vertex="1">
          <mxGeometry width="50" height="48" as="geometry" />
        </mxCell>
        <mxCell id="ziAvvamodwvuvdEPDoWD-39" style="edgeStyle=orthogonalEdgeStyle;rounded=0;orthogonalLoop=1;jettySize=auto;html=1;entryX=0.5;entryY=1;entryDx=0;entryDy=0;" parent="1" source="ziAvvamodwvuvdEPDoWD-28" target="ziAvvamodwvuvdEPDoWD-75" edge="1">
          <mxGeometry relative="1" as="geometry">
            <Array as="points">
              <mxPoint x="545" y="430" />
              <mxPoint x="445" y="430" />
            </Array>
            <mxPoint x="445" y="414" as="targetPoint" />
          </mxGeometry>
        </mxCell>
        <mxCell id="ziAvvamodwvuvdEPDoWD-47" value="" style="sketch=0;points=[[0,0,0],[0.25,0,0],[0.5,0,0],[0.75,0,0],[1,0,0],[0,1,0],[0.25,1,0],[0.5,1,0],[0.75,1,0],[1,1,0],[0,0.25,0],[0,0.5,0],[0,0.75,0],[1,0.25,0],[1,0.5,0],[1,0.75,0]];outlineConnect=0;fontColor=#232F3E;fillColor=#C925D1;strokeColor=#ffffff;dashed=0;verticalLabelPosition=bottom;verticalAlign=top;align=center;html=1;fontSize=12;fontStyle=0;aspect=fixed;shape=mxgraph.aws4.resourceIcon;resIcon=mxgraph.aws4.rds;" parent="1" vertex="1">
          <mxGeometry x="420" y="700" width="50" height="50" as="geometry" />
        </mxCell>
        <mxCell id="ziAvvamodwvuvdEPDoWD-48" style="edgeStyle=orthogonalEdgeStyle;rounded=0;orthogonalLoop=1;jettySize=auto;html=1;entryX=0.5;entryY=0;entryDx=0;entryDy=0;entryPerimeter=0;" parent="1" source="ziAvvamodwvuvdEPDoWD-8" target="ziAvvamodwvuvdEPDoWD-47" edge="1">
          <mxGeometry relative="1" as="geometry">
            <Array as="points">
              <mxPoint x="345" y="610" />
              <mxPoint x="445" y="610" />
            </Array>
          </mxGeometry>
        </mxCell>
        <mxCell id="ziAvvamodwvuvdEPDoWD-50" style="edgeStyle=orthogonalEdgeStyle;rounded=0;orthogonalLoop=1;jettySize=auto;html=1;exitX=0.5;exitY=1;exitDx=0;exitDy=0;entryX=0.5;entryY=0;entryDx=0;entryDy=0;entryPerimeter=0;" parent="1" source="ziAvvamodwvuvdEPDoWD-28" target="ziAvvamodwvuvdEPDoWD-47" edge="1">
          <mxGeometry relative="1" as="geometry">
            <Array as="points">
              <mxPoint x="545" y="610" />
              <mxPoint x="445" y="610" />
            </Array>
          </mxGeometry>
        </mxCell>
        <mxCell id="ziAvvamodwvuvdEPDoWD-77" style="edgeStyle=orthogonalEdgeStyle;rounded=0;orthogonalLoop=1;jettySize=auto;html=1;entryX=0.5;entryY=0;entryDx=0;entryDy=0;entryPerimeter=0;startArrow=classic;startFill=1;" parent="1" source="ziAvvamodwvuvdEPDoWD-19" target="ziAvvamodwvuvdEPDoWD-47" edge="1">
          <mxGeometry relative="1" as="geometry" />
        </mxCell>
        <mxCell id="R3RGennayXwYNRmpoY0p-9" style="edgeStyle=orthogonalEdgeStyle;rounded=0;orthogonalLoop=1;jettySize=auto;html=1;" parent="1" source="ziAvvamodwvuvdEPDoWD-83" target="R3RGennayXwYNRmpoY0p-5" edge="1">
          <mxGeometry relative="1" as="geometry" />
        </mxCell>
        <mxCell id="ziAvvamodwvuvdEPDoWD-83" value="" style="sketch=0;outlineConnect=0;fontColor=#232F3E;gradientColor=none;strokeColor=#232F3E;fillColor=#ffffff;dashed=0;verticalLabelPosition=bottom;verticalAlign=top;align=center;html=1;fontSize=12;fontStyle=0;aspect=fixed;shape=mxgraph.aws4.resourceIcon;resIcon=mxgraph.aws4.internet;" parent="1" vertex="1">
          <mxGeometry x="415" y="230" width="60" height="60" as="geometry" />
        </mxCell>
        <mxCell id="R3RGennayXwYNRmpoY0p-10" style="edgeStyle=orthogonalEdgeStyle;rounded=0;orthogonalLoop=1;jettySize=auto;html=1;" parent="1" source="R3RGennayXwYNRmpoY0p-5" target="ziAvvamodwvuvdEPDoWD-83" edge="1">
          <mxGeometry relative="1" as="geometry" />
        </mxCell>
        <mxCell id="R3RGennayXwYNRmpoY0p-5" value="" style="shape=image;html=1;verticalAlign=top;verticalLabelPosition=bottom;labelBackgroundColor=#ffffff;imageAspect=0;aspect=fixed;image=https://cdn1.iconfinder.com/data/icons/ionicons-fill-vol-2/512/logo-docker-128.png;imageBackground=#2875E2;imageBorder=#2875E2;" parent="1" vertex="1">
          <mxGeometry x="425" y="334" width="40" height="40" as="geometry" />
        </mxCell>
        <mxCell id="jQ1B_9RGvY_NhjF2A59Y-15" value="" style="aspect=fixed;sketch=0;html=1;dashed=0;whitespace=wrap;fillColor=#2875E2;strokeColor=#ffffff;points=[[0.005,0.63,0],[0.1,0.2,0],[0.9,0.2,0],[0.5,0,0],[0.995,0.63,0],[0.72,0.99,0],[0.5,1,0],[0.28,0.99,0]];shape=mxgraph.kubernetes.icon2;kubernetesLabel=1;prIcon=c_m" vertex="1" parent="1">
          <mxGeometry x="360" y="620" width="50" height="48" as="geometry" />
        </mxCell>
        <mxCell id="jQ1B_9RGvY_NhjF2A59Y-16" value="" style="aspect=fixed;sketch=0;html=1;dashed=0;whitespace=wrap;fillColor=#2875E2;strokeColor=#ffffff;points=[[0.005,0.63,0],[0.1,0.2,0],[0.9,0.2,0],[0.5,0,0],[0.995,0.63,0],[0.72,0.99,0],[0.5,1,0],[0.28,0.99,0]];shape=mxgraph.kubernetes.icon2;kubernetesLabel=1;prIcon=secret" vertex="1" parent="1">
          <mxGeometry x="300" y="620" width="50" height="48" as="geometry" />
        </mxCell>
        <mxCell id="jQ1B_9RGvY_NhjF2A59Y-18" value="" style="aspect=fixed;sketch=0;html=1;dashed=0;whitespace=wrap;fillColor=#2875E2;strokeColor=#ffffff;points=[[0.005,0.63,0],[0.1,0.2,0],[0.9,0.2,0],[0.5,0,0],[0.995,0.63,0],[0.72,0.99,0],[0.5,1,0],[0.28,0.99,0]];shape=mxgraph.kubernetes.icon2;kubernetesLabel=1;prIcon=deploy" vertex="1" parent="1">
          <mxGeometry x="288.75" y="445" width="31.25" height="30" as="geometry" />
        </mxCell>
        <mxCell id="jQ1B_9RGvY_NhjF2A59Y-19" value="" style="aspect=fixed;sketch=0;html=1;dashed=0;whitespace=wrap;fillColor=#2875E2;strokeColor=#ffffff;points=[[0.005,0.63,0],[0.1,0.2,0],[0.9,0.2,0],[0.5,0,0],[0.995,0.63,0],[0.72,0.99,0],[0.5,1,0],[0.28,0.99,0]];shape=mxgraph.kubernetes.icon2;kubernetesLabel=1;prIcon=deploy" vertex="1" parent="1">
          <mxGeometry x="383.75" y="445" width="31.25" height="30" as="geometry" />
        </mxCell>
        <mxCell id="jQ1B_9RGvY_NhjF2A59Y-20" value="" style="aspect=fixed;sketch=0;html=1;dashed=0;whitespace=wrap;fillColor=#2875E2;strokeColor=#ffffff;points=[[0.005,0.63,0],[0.1,0.2,0],[0.9,0.2,0],[0.5,0,0],[0.995,0.63,0],[0.72,0.99,0],[0.5,1,0],[0.28,0.99,0]];shape=mxgraph.kubernetes.icon2;kubernetesLabel=1;prIcon=deploy" vertex="1" parent="1">
          <mxGeometry x="488.75" y="445" width="31.25" height="30" as="geometry" />
        </mxCell>
      </root>
    </mxGraphModel>
  </diagram>
</mxfile>
